<svg xmlns="http://www.w3.org/2000/svg" viewBox="0 0 64 64" enable-background="new 0 0 64 64">

  <!-- left is happy -->
  <clipPath id="cut-off-right">
    <rect x="0" y="0" width="32" height="64" />
  </clipPath>
  <circle fill="#fedc6f" cx="32" cy="32" r="30" clip-path="url(#cut-off-right)" />
  <g fill="#654d2a">
    <path d="m17.316 40.949c2.475 1.455 4.865 2.338 7.314 2.924 2.439.586 4.9.836 7.369.84 2.471-.01 4.93-.26 7.367-.846 2.449-.586 4.838-1.467 7.316-2.918-1.061 2.717-3.416 4.854-6.04 6.221-2.654 1.379-5.662 2.043-8.641 2.041-2.979-.004-5.984-.668-8.637-2.047-2.625-1.367-4.98-3.502-6.05-6.215" clip-path="url(#cut-off-right)" />
    <circle cx="20.502" cy="26.592" r="4.5" />
  </g>

  <!-- right is not -->
  <clipPath id="cut-off-left">
    <rect x="32" y="0" width="32" height="64" />
  </clipPath>
  <circle fill="#ed5454" cx="32" cy="32" r="30" clip-path="url(#cut-off-left)"/>
  <g fill="#000000">
    <path d="m42.684 47c-1.801-1.061-3.541-1.701-5.322-2.127-1.775-.428-3.566-.609-5.361-.613-1.799.008-3.588.189-5.361.615-1.781.428-3.52 1.068-5.322 2.125.771-1.979 2.484-3.533 4.396-4.527 1.932-1 4.119-1.486 6.287-1.484 2.166.004 4.354.486 6.283 1.488 1.909.996 3.624 2.548 4.4 4.523" clip-path="url(#cut-off-left)"/>
    <circle cx="43.5" cy="26.592" r="4.5" />
  </g>

</svg>
